<svg xmlns="http://www.w3.org/2000/svg" id="Vrstva_1" data-name="Vrstva 1" viewBox="0 0 256 256" width="256" height="256"><metadata><rdf:RDF xmlns:rdf="http://www.w3.org/1999/02/22-rdf-syntax-ns#" xmlns:dc="http://purl.org/dc/elements/1.1/"><rdf:Description><dc:creator>RealFaviconGenerator</dc:creator><dc:source>https://realfavicongenerator.net</dc:source></rdf:Description></rdf:RDF></metadata><defs>
    <style>
      .cls-1 {
        fill: #fff;
      }

      .cls-2 {
        fill: #c5a059;
      }
    </style>
  </defs><path class="cls-2" d="M230.42,103.42c0,76.21-70.36,132.14-94.45,149.06-4.79,3.36-11.16,3.36-15.95,0-24.09-16.92-94.45-72.85-94.45-149.06C25.58,46.85,71.43,1,128,1s102.42,45.85,102.42,102.42Z"></path><g>
    <path class="cls-1" d="M179.01,99.55l-46.96-30.89c-2.38-1.56-5.45-1.57-7.83-.03l-47.16,30.58c-2.03,1.32-3.26,3.57-3.27,5.99l-.18,62.3c-.01,3.96,3.19,7.17,7.14,7.19l26.27.09c1.66,0,3-1.34,3-2.99v-42.32c0-2.81,2.28-5.09,5.09-5.09h25.79c2.81,0,5.09,2.28,5.09,5.09v42.46c0,1.65,1.33,2.99,2.98,2.99l25.9.09c3.96.01,7.17-3.18,7.19-7.14l.18-62.3c0-2.42-1.21-4.68-3.23-6.01Z"></path>
    <path class="cls-1" d="M197.93,89.45l-26.94-17.72v-15.52c0-2.11-1.71-3.83-3.83-3.83h-7.9c-2.11,0-3.83,1.71-3.83,3.83v5.28l-19.34-12.72c-4.81-3.17-11.05-3.19-15.88-.05l-62.1,40.27c-2.94,1.91-3.78,5.83-1.87,8.77,1.91,2.94,5.83,3.78,8.77,1.87l62.1-40.27c.61-.4,1.4-.39,2.01,0l61.84,40.68c1.07.71,2.28,1.04,3.48,1.04,2.06,0,4.09-1.01,5.31-2.86,1.93-2.93,1.11-6.86-1.81-8.79Z"></path>
  </g><style>@media (prefers-color-scheme: light) { :root { filter: none; } }
@media (prefers-color-scheme: dark) { :root { filter: none; } }
</style></svg>